<?xml version="1.0" encoding="UTF-8"?>
<svg id="Layer_1" data-name="Layer 1" xmlns="http://www.w3.org/2000/svg" viewBox="0 0 24 24">
  <path d="M19.29,3.8c-1.38-.64-2.84-1.09-4.33-1.34-.2.37-.39.75-.55,1.13-1.59-.24-3.21-.24-4.81,0-.17-.39-.35-.77-.55-1.13-1.5.26-2.95.71-4.34,1.34C1.96,7.89,1.22,11.86,1.59,15.78c1.61,1.19,3.4,2.1,5.31,2.68.43-.58.81-1.2,1.14-1.84-.62-.23-1.22-.52-1.79-.86.15-.11.3-.22.44-.33,1.66.79,3.48,1.19,5.31,1.19s3.65-.41,5.31-1.19c.14.12.29.23.44.33-.57.34-1.17.63-1.8.86.33.65.71,1.26,1.14,1.84,1.91-.58,3.71-1.49,5.32-2.68.44-4.55-.74-8.49-3.12-11.98ZM8.51,13.37c-1.04,0-1.89-.94-1.89-2.11s.83-2.12,1.89-2.12,1.91.95,1.89,2.12-.83,2.11-1.89,2.11ZM15.49,13.37c-1.04,0-1.89-.94-1.89-2.11s.83-2.12,1.89-2.12,1.91.95,1.89,2.12-.83,2.11-1.89,2.11Z"/>
</svg>