<?xml version="1.0" encoding="UTF-8"?>
<svg id="Layer_1" data-name="Layer 1" xmlns="http://www.w3.org/2000/svg" viewBox="0 0 24 24">
  <path d="M12,4.21c2.54,0,2.84,0,3.84.06.6,0,1.2.12,1.76.33.41.15.79.4,1.09.71.32.31.56.68.71,1.09.21.56.32,1.16.33,1.76.05,1,.06,1.3.06,3.84s0,2.84-.06,3.84c0,.6-.12,1.2-.33,1.76-.16.41-.4.78-.71,1.09-.31.31-.68.55-1.09.71-.56.21-1.16.32-1.76.33-1,.05-1.3.06-3.84.06s-2.84,0-3.84-.06c-.6,0-1.2-.12-1.76-.33-.41-.15-.79-.4-1.09-.71-.32-.31-.56-.68-.71-1.09-.21-.56-.32-1.16-.33-1.76-.05-1-.06-1.3-.06-3.84s0-2.84.06-3.84c0-.6.12-1.2.33-1.76.15-.41.4-.79.71-1.09.31-.32.68-.56,1.09-.71.56-.21,1.16-.32,1.76-.33,1-.05,1.3-.06,3.84-.06ZM12,2.5c-2.58,0-2.9.01-3.92.06-.79.02-1.57.16-2.31.44-.63.24-1.21.61-1.68,1.1-.48.47-.86,1.05-1.1,1.68-.28.74-.43,1.52-.44,2.31-.05,1.01-.06,1.34-.06,3.92s.01,2.9.06,3.92c.02.79.16,1.57.44,2.31.24.63.61,1.21,1.1,1.68.47.48,1.05.86,1.68,1.1.74.28,1.52.43,2.31.44,1.01.05,1.34.06,3.92.06s2.9-.01,3.92-.06c.79-.02,1.57-.16,2.31-.44.63-.24,1.2-.62,1.68-1.1.48-.48.85-1.05,1.1-1.68.28-.74.43-1.52.44-2.31.05-1.01.06-1.34.06-3.92s-.01-2.9-.06-3.92c-.02-.79-.16-1.57-.44-2.31-.24-.63-.61-1.21-1.1-1.68-.47-.48-1.05-.86-1.68-1.1-.74-.28-1.52-.43-2.31-.44-1.01-.05-1.34-.06-3.92-.06ZM12,7.12c-.96,0-1.91.29-2.71.82-.8.54-1.43,1.3-1.8,2.19-.37.89-.47,1.87-.28,2.82.19.95.65,1.82,1.34,2.5.68.68,1.55,1.15,2.5,1.34.95.19,1.93.09,2.82-.28.89-.37,1.65-.99,2.19-1.8.54-.8.82-1.75.82-2.71,0-1.29-.51-2.53-1.43-3.45-.91-.91-2.16-1.43-3.45-1.43ZM12,15.17c-.63,0-1.24-.19-1.76-.53-.52-.35-.93-.84-1.17-1.42-.24-.58-.3-1.22-.18-1.83.12-.61.42-1.18.87-1.62.44-.44,1.01-.74,1.62-.87.61-.12,1.25-.06,1.83.18.58.24,1.07.65,1.42,1.17.35.52.53,1.13.53,1.76,0,.84-.33,1.65-.93,2.24s-1.4.93-2.24.93ZM17.07,5.79c-.23,0-.45.07-.63.19-.19.13-.33.3-.42.51-.09.21-.11.44-.06.66.04.22.15.42.31.58.16.16.36.27.58.31.22.04.45.02.66-.06s.39-.23.51-.42c.13-.19.19-.41.19-.63,0-.3-.12-.59-.33-.81-.21-.21-.5-.33-.81-.33Z"/>
</svg>